<?xml version="1.0" standalone="no"?>
<!DOCTYPE svg PUBLIC "-//W3C//DTD SVG 1.0//EN" "http://www.w3.org/TR/2001/REC-SVG-20010904/DTD/svg10.dtd">
<svg xmlns="http://www.w3.org/2000/svg" xmlns:xlink="http://www.w3.org/1999/xlink" id="body_1" width="21" height="16">

<g transform="matrix(0.77777785 0 0 0.76190484 0 0)">
	<g transform="matrix(0.034017835 0 0 0.034723893 0 0.0008264458)">
	</g>
    <path transform="matrix(0.034017835 0 0 0.034723893 0 0.0008264458)"  d="M17.517223 63.0225C 17.517223 39.84154 36.274605 21.090067 59.527557 21.090067L59.527557 21.090067L734.1732 21.090067C 745.33466 21.090067 756.031 25.519548 763.937 33.344967C 771.688 41.170387 776.18353 51.948795 776.18353 63.0225L776.18353 63.0225L776.18353 541.7019C 776.18353 564.8829 757.4262 583.63434 734.1732 583.63434L734.1732 583.63434L59.527557 583.63434C 36.274605 583.63434 17.517223 564.8829 17.517223 541.7019L17.517223 541.7019L17.517223 63.0225z" stroke="#000000" stroke-width="16" fill="none" />
	<g transform="matrix(0.034017835 0 0 0.034723893 0 0.0008264458)">
	</g>
    <path transform="matrix(0.034017835 0 0 0.034723893 0 0.0008264458)"  d="M70.53396 92.700035C 70.53396 70.55262 88.51624 52.687042 110.52904 52.687042L110.52904 52.687042L281.36072 52.687042C 292.0571 52.687042 302.13336 56.968876 309.72934 64.35134C 317.1703 71.88146 321.3558 82.069275 321.3558 92.700035L321.3558 92.700035L321.3558 252.60435C 321.3558 274.60413 303.52853 292.4697 281.36072 292.4697L281.36072 292.4697L110.52904 292.4697C 88.51624 292.4697 70.53396 274.60413 70.53396 252.60435L70.53396 252.60435L70.53396 92.700035z" stroke="#000000" stroke-width="24" fill="none" />
	<g transform="matrix(0.034017835 0 0 0.034723893 0 0.0008264458)">
	</g>
    <path transform="matrix(0.034017835 0 0 0.034723893 0 0.0008264458)"  d="M76.11466 104.21669L315.7751 104.21669" stroke="#000000" stroke-width="24" fill="none" />
	<g transform="matrix(0.034017835 0 0 0.034723893 0 0.0008264458)">
	</g>
    <path transform="matrix(0.034017835 0 0 0.034723893 0 0.0008264458)"  d="M195.94489 292.4697L195.94489 52.687042" stroke="#000000" stroke-width="24" fill="none" />
	<g transform="matrix(0.034017835 0 0 0.034723893 0 0.0008264458)">
	</g>
    <path transform="matrix(0.034017835 0 0 0.034723893 0 0.0008264458)"  d="M76.11466 198.12172L315.7751 198.12172" stroke="#000000" stroke-width="24" fill="none" />
	<g transform="matrix(0.034017835 0 0 0.034723893 0 0.0008264458)">
	</g>
    <path transform="matrix(0.034017835 0 0 0.034723893 0 0.0008264458)"  d="M348.63928 346.21408C 348.63928 324.06668 366.62155 306.20108 388.63434 306.20108L388.63434 306.20108L683.17175 306.20108C 693.7131 306.20108 703.9444 310.4829 711.3853 317.8654C 718.8263 325.3955 723.01184 335.5833 723.01184 346.21408L723.01184 346.21408L723.01184 506.1184C 723.01184 528.11816 705.1846 545.98376 683.17175 545.98376L683.17175 545.98376L388.63434 545.98376C 366.62155 545.98376 348.63928 528.11816 348.63928 506.1184L348.63928 506.1184L348.63928 346.21408z" stroke="#000000" stroke-width="24" fill="none" />
	<g transform="matrix(0.034017835 0 0 0.034723893 0 0.0008264458)">
	</g>
    <path transform="matrix(0.034017835 0 0 0.034723893 0 0.0008264458)"  d="M357.01035 357.73074L714.7958 357.73074" stroke="#000000" stroke-width="24" fill="none" />
	<g transform="matrix(0.034017835 0 0 0.034723893 0 0.0008264458)">
	</g>
    <path transform="matrix(0.034017835 0 0 0.034723893 0 0.0008264458)"  d="M593.2603 546.1314L593.2603 306.20108" stroke="#000000" stroke-width="24" fill="none" />
	<g transform="matrix(0.034017835 0 0 0.034723893 0 0.0008264458)">
	</g>
    <path transform="matrix(0.034017835 0 0 0.034723893 0 0.0008264458)"  d="M357.01035 451.63577L714.7958 451.63577" stroke="#000000" stroke-width="24" fill="none" />
	<g transform="matrix(0.034017835 0 0 0.034723893 0 0.0008264458)">
	</g>
    <path transform="matrix(0.034017835 0 0 0.034723893 0 0.0008264458)"  d="M472.03494 552.03735L472.03494 312.25473" stroke="#000000" stroke-width="24" fill="none" />
	<g transform="matrix(0.034017835 0 0 0.034723893 0 0.0008264458)">
	</g>
    <path transform="matrix(0.034017835 0 0 0.034723893 0 0.0008264458)"  d="M396.38535 68.928474L475.91043 68.928474C 526.2918 68.928474 567.062 109.82736 567.062 160.17581L567.062 160.17581L567.062 209.19542L613.72296 209.19542L541.0187 277.40945L468.31448 209.19542L514.9754 209.19542L514.9754 160.17581C 514.9754 138.619 497.45816 121.04872 475.91043 121.04872L475.91043 121.04872L396.38535 121.04872L396.38535 68.928474z" stroke="#000000" stroke-width="4" fill="#000000" fill-rule="nonzero" />
	<g transform="matrix(0.034017835 0 0 0.034723893 0 0.0008264458)">
	</g>
    <path transform="matrix(0.034017835 0 0 0.034723893 0 0.0008264458)"  d="M304.61368 536.2389L225.2436 536.2389C 174.8622 536.2389 133.93701 495.48764 133.93701 445.1392L133.93701 445.1392L133.93701 396.1196L87.276085 396.1196L160.13533 327.90555L232.83957 396.1196L186.17863 396.1196L186.17863 445.1392C 186.17863 466.696 203.54085 484.2663 225.2436 484.2663L225.2436 484.2663L304.61368 484.2663L304.61368 536.2389z" stroke="#000000" stroke-width="4" fill="#000000" fill-rule="nonzero" />
</g>
</svg>