<svg version="1.1" viewBox="0.0 0.0 793.7007874015748 604.7244094488188" fill="none" stroke="none" stroke-linecap="square" stroke-miterlimit="10" xmlns:xlink="http://www.w3.org/1999/xlink" xmlns="http://www.w3.org/2000/svg"><clipPath id="p.0"><path d="m0 0l793.7008 0l0 604.7244l-793.7008 0l0 -604.7244z" clip-rule="nonzero"/></clipPath><g clip-path="url(#p.0)"><path fill="#000000" fill-opacity="0.0" d="m0 0l793.7008 0l0 604.7244l-793.7008 0z" fill-rule="evenodd"/><path fill="#000000" fill-opacity="0.0" d="m17.52756 63.054268l0 0c0 -23.195492 18.80366 -41.99915 41.999146 -41.99915l674.64734 0c11.138855 0 21.821533 4.4248962 29.697876 12.301266c7.876404 7.8763695 12.30127 18.559013 12.30127 29.697884l0 478.6159c0 23.195496 -18.80365 41.999146 -41.999146 41.999146l-674.64734 0c-23.195488 0 -41.999146 -18.80365 -41.999146 -41.999146z" fill-rule="evenodd"/><path stroke="#000000" stroke-width="16.0" stroke-linejoin="round" stroke-linecap="butt" d="m17.52756 63.054268l0 0c0 -23.195492 18.80366 -41.99915 41.999146 -41.99915l674.64734 0c11.138855 0 21.821533 4.4248962 29.697876 12.301266c7.876404 7.8763695 12.30127 18.559013 12.30127 29.697884l0 478.6159c0 23.195496 -18.80365 41.999146 -41.999146 41.999146l-674.64734 0c-23.195488 0 -41.999146 -18.80365 -41.999146 -41.999146z" fill-rule="evenodd"/><path fill="#000000" fill-opacity="0.0" d="m70.61063 92.673256l0 0c0 -22.07734 17.897217 -39.974556 39.974556 -39.974556l170.82254 0l0 0c10.601929 0 20.769623 4.2115936 28.266296 11.708275c7.4966736 7.496681 11.708282 17.664368 11.708282 28.266281l0 159.8934c0 22.077347 -17.897217 39.974564 -39.97458 39.974564l-170.82254 0c-22.07734 0 -39.974556 -17.897217 -39.974556 -39.974564z" fill-rule="evenodd"/><path stroke="#000000" stroke-width="24.0" stroke-linejoin="round" stroke-linecap="butt" d="m70.61063 92.673256l0 0c0 -22.07734 17.897217 -39.974556 39.974556 -39.974556l170.82254 0l0 0c10.601929 0 20.769623 4.2115936 28.266296 11.708275c7.4966736 7.496681 11.708282 17.664368 11.708282 28.266281l0 159.8934c0 22.077347 -17.897217 39.974564 -39.97458 39.974564l-170.82254 0c-22.07734 0 -39.974556 -17.897217 -39.974556 -39.974564z" fill-rule="evenodd"/><path fill="#000000" fill-opacity="0.0" d="m76.162 104.24945l239.65355 0" fill-rule="evenodd"/><path stroke="#000000" stroke-width="24.0" stroke-linejoin="round" stroke-linecap="butt" d="m76.162 104.24945l239.65355 0" fill-rule="evenodd"/><path fill="#000000" fill-opacity="0.0" d="m195.99646 292.54123l0 -239.84253" fill-rule="evenodd"/><path stroke="#000000" stroke-width="24.0" stroke-linejoin="round" stroke-linecap="butt" d="m195.99646 292.54123l0 -239.84253" fill-rule="evenodd"/><path fill="#000000" fill-opacity="0.0" d="m76.169556 198.12686l239.65353 0" fill-rule="evenodd"/><path stroke="#000000" stroke-width="24.0" stroke-linejoin="round" stroke-linecap="butt" d="m76.169556 198.12686l239.65353 0" fill-rule="evenodd"/><path fill="#000000" fill-opacity="0.0" d="m348.652 346.18915l0 0c0 -22.077362 17.897217 -39.97458 39.97458 -39.97458l294.47607 0c10.601929 0 20.769592 4.211609 28.266296 11.708282c7.496643 7.4966736 11.708252 17.664368 11.708252 28.266296l0 159.8934c0 22.077362 -17.897217 39.97458 -39.97455 39.97458l-294.47607 0c-22.077362 0 -39.97458 -17.897217 -39.97458 -39.97458z" fill-rule="evenodd"/><path stroke="#000000" stroke-width="24.0" stroke-linejoin="round" stroke-linecap="butt" d="m348.652 346.18915l0 0c0 -22.077362 17.897217 -39.97458 39.97458 -39.97458l294.47607 0c10.601929 0 20.769592 4.211609 28.266296 11.708282c7.496643 7.4966736 11.708252 17.664368 11.708252 28.266296l0 159.8934c0 22.077362 -17.897217 39.97458 -39.97455 39.97458l-294.47607 0c-22.077362 0 -39.97458 -17.897217 -39.97458 -39.97458z" fill-rule="evenodd"/><path fill="#000000" fill-opacity="0.0" d="m356.9406 357.76532l357.82678 0" fill-rule="evenodd"/><path stroke="#000000" stroke-width="24.0" stroke-linejoin="round" stroke-linecap="butt" d="m356.9406 357.76532l357.82678 0" fill-rule="evenodd"/><path fill="#000000" fill-opacity="0.0" d="m593.2494 546.0677l0 -239.8425" fill-rule="evenodd"/><path stroke="#000000" stroke-width="24.0" stroke-linejoin="round" stroke-linecap="butt" d="m593.2494 546.0677l0 -239.8425" fill-rule="evenodd"/><path fill="#000000" fill-opacity="0.0" d="m356.9519 451.64273l357.82678 0" fill-rule="evenodd"/><path stroke="#000000" stroke-width="24.0" stroke-linejoin="round" stroke-linecap="butt" d="m356.9519 451.64273l357.82678 0" fill-rule="evenodd"/><path fill="#000000" fill-opacity="0.0" d="m472.0044 552.0257l0 -239.8425" fill-rule="evenodd"/><path stroke="#000000" stroke-width="24.0" stroke-linejoin="round" stroke-linecap="butt" d="m472.0044 552.0257l0 -239.8425" fill-rule="evenodd"/><path fill="#000000" d="m396.3701 68.96587l79.51254 0c50.349243 0 91.165344 40.816116 91.165344 91.16535l0 49.004242l46.707947 0l-72.75519 68.20834l-72.75516 -68.20834l46.707916 0l0 -49.004242l0 0c0 -21.578247 -17.492615 -39.07086 -39.07086 -39.07086l-79.51254 0z" fill-rule="evenodd"/><path stroke="#000000" stroke-width="4.0" stroke-linejoin="round" stroke-linecap="butt" d="m396.3701 68.96587l79.51254 0c50.349243 0 91.165344 40.816116 91.165344 91.16535l0 49.004242l46.707947 0l-72.75519 68.20834l-72.75516 -68.20834l46.707916 0l0 -49.004242l0 0c0 -21.578247 -17.492615 -39.07086 -39.07086 -39.07086l-79.51254 0z" fill-rule="evenodd"/><path fill="#000000" d="m304.69028 536.29395l-79.51254 0c-50.349228 0 -91.16536 -40.8161 -91.16536 -91.165344l0 -49.004242l-46.707916 0l72.75517 -68.20834l72.75516 68.20834l-46.707916 0l0 49.004242l0 0c0 21.578247 17.492615 39.07086 39.07086 39.07086l79.51254 0z" fill-rule="evenodd"/><path stroke="#000000" stroke-width="4.0" stroke-linejoin="round" stroke-linecap="butt" d="m304.69028 536.29395l-79.51254 0c-50.349228 0 -91.16536 -40.8161 -91.16536 -91.165344l0 -49.004242l-46.707916 0l72.75517 -68.20834l72.75516 68.20834l-46.707916 0l0 49.004242l0 0c0 21.578247 17.492615 39.07086 39.07086 39.07086l79.51254 0z" fill-rule="evenodd"/></g></svg>